{
  "asset": {
    "version": "2.0",
    "generator": "Dx12Renderer static glTF learning milestone"
  },
  "scene": 0,
  "scenes": [
    {
      "name": "Learning Cube Scene",
      "nodes": [0]
    }
  ],
  "nodes": [
    {
      "name": "Learning Cube Node",
      "mesh": 0,
      "rotation": [0.0, 0.2164396, 0.0, 0.9762960],
      "scale": [0.9, 0.9, 0.9]
    }
  ],
  "meshes": [
    {
      "name": "Learning Cube Mesh",
      "primitives": [
        {
          "attributes": {
            "POSITION": 0,
            "NORMAL": 1,
            "TEXCOORD_0": 2,
            "TANGENT": 3
          },
          "indices": 4,
          "material": 0,
          "mode": 4
        }
      ]
    }
  ],
  "materials": [
    {
      "name": "Learning Cube Material",
      "pbrMetallicRoughness": {
        "baseColorFactor": [0.8, 0.65, 0.5, 1.0],
        "baseColorTexture": {
          "index": 0,
          "texCoord": 0
        },
        "metallicFactor": 0.7,
        "roughnessFactor": 0.9,
        "metallicRoughnessTexture": {
          "index": 2,
          "texCoord": 0
        }
      },
      "normalTexture": {
        "index": 1,
        "texCoord": 0,
        "scale": 0.35
      }
    }
  ],
  "textures": [
    {
      "name": "Learning Cube Base Color Texture",
      "source": 0
    },
    {
      "name": "Learning Cube Normal Texture",
      "source": 1
    },
    {
      "name": "Learning Cube Metallic-Roughness Texture",
      "source": 2
    }
  ],
  "images": [
    {
      "name": "Learning Cube Base Color Image",
      "uri": "data:image/png;base64,"
    },
    {
      "name": "Learning Cube Smooth Normal Image",
      "uri": "data:image/png;base64,"
    },
    {
      "name": "Learning Cube Smooth Metallic-Roughness Image",
      "uri": "data:image/png;base64,"
    }
  ],
  "buffers": [
    {
      "byteLength": 1224,
      "uri": "data:application/octet-stream;base64,"
    }
  ],
  "bufferViews": [
    {
      "buffer": 0,
      "byteOffset": 0,
      "byteLength": 1152,
      "byteStride": 48,
      "target": 34962
    },
    {
      "buffer": 0,
      "byteOffset": 1152,
      "byteLength": 72,
      "target": 34963
    }
  ],
  "accessors": [
    {
      "bufferView": 0,
      "byteOffset": 0,
      "componentType": 5126,
      "count": 24,
      "type": "VEC3",
      "min": [-0.75, -0.75, -0.75],
      "max": [0.75, 0.75, 0.75]
    },
    {
      "bufferView": 0,
      "byteOffset": 12,
      "componentType": 5126,
      "count": 24,
      "type": "VEC3"
    },
    {
      "bufferView": 0,
      "byteOffset": 24,
      "componentType": 5126,
      "count": 24,
      "type": "VEC2"
    },
    {
      "bufferView": 0,
      "byteOffset": 32,
      "componentType": 5126,
      "count": 24,
      "type": "VEC4"
    },
    {
      "bufferView": 1,
      "byteOffset": 0,
      "componentType": 5123,
      "count": 36,
      "type": "SCALAR"
    }
  ]
}
